<?xml version="1.0" encoding="utf-8"?>
<!-- Generator: Adobe Illustrator 19.2.1, SVG Export Plug-In . SVG Version: 6.00 Build 0)  -->
<svg version="1.1" id="Layer_1" xmlns="http://www.w3.org/2000/svg" xmlns:xlink="http://www.w3.org/1999/xlink" x="0px" y="0px"
	 viewBox="0 0 162.6 30" style="enable-background:new 0 0 162.6 30;" xml:space="preserve">
<style type="text/css">
	.st0{fill:#42484B;}
</style>
<g>
	<path class="st0" d="M41,5.1c0.3-0.6,0.5-0.9,0.6-1.4C41.9,3,42,3.5,42.2,3.4c0.2,0.1,0.1,0.2,0.3,0.3c0.4,1.2,0.6,1.6,0.9,2.6
		c0.2,0.5,0.4,1.2,0.5,1.5c0.4,0.8,0.4,1.2,0.9,2c0.3,0.8,0.5,1.2,0.6,1.3c0.6,1.4,1.2,2.7,1.9,4.1c0.9,1.8,1.7,3.5,2.4,5.1
		c0.6,0.3,1.9-0.1,2.1,0.7c0.3,0.1-0.5,0.4-1,0.4c-0.3,0.1-0.6,0-0.6,0.1c0,0.3,0.6,1.3,0.8,1.6c0.2,0.4,0.5,1.1,0.5,1.4
		c0.2,0.7,0.4,1.7,0.1,2.4c-0.5-0.6-0.8-1.4-1.1-2.2c-0.7-1-1-2.2-1.6-3.3c-0.2,0-0.6-0.1-0.9-0.1c0.6,1.7,2.2,3.4,2,5.5
		c-0.2,0.1,0,0.4-0.2,0.3c-0.4-0.2-0.4-0.6-0.8-1.1c-0.5-0.7-0.8-1.6-1.2-2.5c-0.3-0.7-0.7-1.4-1-2.2c-0.6,0-1.1,0-1,0.1
		c0.2,0.8,1.2,2.8,1.4,3.7c0.1,0.4,0.3,0.8,0.5,1.2c0.1,0.4,0.3,1,0.2,1.1c-0.1,0.2-0.6-0.3-0.9-0.3c-0.1,0-0.3-0.3-0.3-0.4
		c-0.2-0.2-0.4-0.8-0.6-1.2c-0.2-0.6-0.4-1-0.7-1.6c-0.2-0.4-0.4-0.9-0.6-1.3c-0.1-0.3-0.3-0.7-0.5-1.2c-1.9-0.1-3.4,0.1-5.3,0
		c-0.6,0-1.4,0-1.9,0c-0.6,0-1.3,0-1.5,0.2c-0.2,0.6-0.3,0.7-0.8,2.1c-0.4,1-0.6,1.1-1.1,2.1c-0.2,0.3-0.2,0.6-0.6,1.2
		c-0.1,0.4-0.3,0.6-0.5,0.9c-0.1,0.3-0.3,0.3-0.5,0.3c-0.2-0.2-0.6-0.2-0.3-0.7c0.2-0.6,0.1-0.4,0.4-1c0.2-0.3,0.2-0.7,0.4-1.1
		c0.2-0.5,0.4-1,0.7-1.8c0.3-0.9,0.6-1.4,0.8-2.1c-0.1-0.1-0.9-0.1-1-0.1c-0.3,0.7-0.3,0.7-0.5,1.1c-0.1,0.2-0.1,0.4-0.6,1.2
		c-0.1,0.3-0.2,0.6-0.4,1c-0.1,0.2-0.3,0.6-0.4,0.8c-0.6,1.1-0.5,1.4-1.3,2.4c-0.2,0.1-0.3,0.6-0.5,0.6c-0.3,0-0.2,0-0.4-0.3
		c0.2-0.2-0.2,0,0-0.6c0.8-2.2,1.8-4.7,2.5-6.4c-0.4-0.1-1.2-0.1-1.2-0.1c-0.3,0.8-1.1,2.2-1.5,2.9c-0.3,0.6-0.4,0.7-0.7,1.4
		c-0.3,0.5-0.4,0.5-0.6,0.8c-0.1,0.4-0.3,0.4-0.4,0.8c-0.9,1.2-1.7,2.4-2.8,2.1c-0.1-0.2,0.2-0.3,0.2-0.4c0.2-0.3,0.3-0.5,0.6-0.8
		c0.1-0.1,0.6-1,0.7-1.1c0.6-1.3,0.7-1.5,0.9-1.8c0.3-0.6,0.6-1.2,0.8-1.7c0.4-0.8,0.7-1.4,0.9-1.8c0.2-0.5,1.3-2.6,1.6-3
		c0.2-0.5,0.4-0.8,0.7-1.4c0.3-0.6,0.7-1.5,1-2.1c0.5-1.1,0.5-1,1.1-2c0.1-0.3,0.5-1,0.8-1.5c0.4-0.7,0.5-0.9,0.8-1.4
		c0.4-0.6,0.5-0.9,0.7-1.3c0.3-0.4,0.6-0.9,1-1.7c0.7-1.4,1.3-2.4,1.9-3.5c0.3,0,0.5,0,0.7,0.1C38.6,4,38.6,4.4,39,4.9
		c0.2-0.4,0.4-1.5,0.5-1.8c0.4-0.2,0.4,0,0.7,0.2C40.8,3.6,40.8,4.5,41,5.1z M37.8,5.5c-0.7,1.6-1.3,2.4-1.9,4
		C35.3,10.7,35,11,34.5,12c-0.1,0.3-0.5,0.8-0.7,1.3c-0.1,0.1-0.6,1.3-0.7,1.4c-0.3,0.6-0.8,1.7-1,2.3c0.5,0.1,0.8,0,1.1,0
		c0.9-2,1.6-3.1,2.4-5c0.3-0.5,0.5-0.8,0.8-1.6c0.4-0.9,0.6-1.4,1-2.3c0.6-1.4,0.7-1.6,1-2.2C38.3,5.6,38.1,4.7,37.8,5.5z M39.8,6
		c0,0.2,0.1,0.6,0.2,0.9c0.2-0.2,0.4-0.6,0.4-0.7s-0.2-0.6-0.3-0.8C40,5.5,39.9,5.8,39.8,6z M42.3,8.7c0.4,1.1,0.5,1.3,1,2.3
		c0.1,0.1,0.4,1,0.5,1.4c0.6,1.5,1,2.6,1.6,4.1c0.5,0,0.7,0,1-0.1c-0.2-0.6-0.6-1.4-0.9-1.9c-0.3-0.5-0.4-0.8-0.6-1.2
		s-0.4-0.8-0.5-1.1c-0.5-1.2-1.1-2.7-1.6-3.7C42.5,7.7,42.4,7,42,6.3c0-0.1-0.2,0.5-0.2,0.5C41.7,6.9,42,8,42.3,8.7z M38.9,7.6
		c-0.6,1.5-1.5,3.2-2.2,4.6c-0.1,0.3-0.7,1.5-0.8,1.8c-0.7,1.3-1.1,2.2-1.4,3c0.4,0,0.7-0.1,1.1,0c0.3-0.5,1.1-2.5,1.4-2.8
		c0.3-0.7,0.4-0.9,0.7-1.5s0.4-1,0.8-1.8c0.2-0.6,0.4-0.9,0.7-1.7c0.1-0.4,0.3-0.6,0.2-0.6C39.3,8.5,39,7.5,38.9,7.6z M40.6,8.5
		c0.2,0.8,0.5,1.6,0.8,2.4c0.5,1.6,1.4,3.9,1.9,5.2c0.1,0.2,0.1,0.4,0.9,0.2c-0.2-0.6-0.4-0.9-0.6-1.5c-0.3-1-0.7-1.7-0.9-2.5
		c-0.3-0.9-0.6-1.6-0.9-2.5c-0.2-0.5-0.5-1.3-0.8-2C40.9,7.9,40.7,8.5,40.6,8.5z M39.4,11.6c0,0.1-0.3,0.7-0.3,0.8
		c-0.1,0.4-0.2,0.5-0.3,0.8c-0.2,0.5-0.4,1.1-0.4,1.1c-0.1,0.1-0.4,0.8-0.4,0.9c-0.2,0.5-0.4,0.9-0.7,1.5c1.6,0.1,3.1-0.1,4.8-0.1
		c-0.1-0.4-0.3-0.7-0.4-1c-0.1-0.3-0.2-0.8-0.3-1.1c-0.2-0.6-0.4-1.1-0.6-1.6c-0.2-0.5-0.7-2-0.8-2.5C39.9,10.2,39.4,11.5,39.4,11.6
		z M45.8,17.4c0.1,0.3,0.1,0.4,0.3,0.7c0.1,0.1,0.7,0.1,1,0c-0.2-0.5-0.2-0.6-0.3-0.7S46.2,17.3,45.8,17.4z M42.8,18.3
		c0,0-0.1-0.2-0.3-0.6c0,0-4.4,0.2-5.4,0.2c-0.2,0-0.3,0-0.5,0.6C38.2,18.4,41.1,18.5,42.8,18.3z M43.8,17.5c0,0.3,0.4,0.7,0.4,0.7
		c0.4,0,0.4,0,0.8-0.1c-0.1-0.3-0.3-0.6-0.4-0.7C44.4,17.4,43.9,17.4,43.8,17.5z M31.6,18c-0.1,0.2-0.1,0.3-0.2,0.5
		c0.3,0.1,0.7,0.1,1,0.1c0.1,0,0.1-0.2,0.3-0.5C32.1,18,32,18,31.6,18z M33.8,18.7c0.1,0,1.1,0.1,1.2,0c0.1-0.2,0.1-0.4,0.2-0.6
		c-0.1,0-1,0.1-1.1,0C34,18.2,34,18.3,33.8,18.7z M47.3,20.2c0.3,0,0.6,0.1,0.9,0c-0.2-0.5-0.3-0.7-0.7-1.3c-0.4,0-0.5,0-0.9,0
		C46.9,19.6,47,19.8,47.3,20.2z M44.6,19.3c0,0.3,0.3,0.6,0.4,0.8c0,0,0.7,0.1,0.9,0.1c-0.1-0.3-0.3-0.7-0.4-0.9
		C45.3,19.3,44.7,19.2,44.6,19.3z M43.2,19.4c-2.2,0.1-5.2,0.1-7.1,0.2C36,20,35.8,20.3,36,20.3c1.9,0,5.2-0.2,7.5-0.1
		C43.4,19.8,43.3,19.8,43.2,19.4z M30.8,19.6c-0.1,0.2-0.2,0.4-0.4,0.6c0.4,0.1,0.9,0.1,1.2,0.1c0,0,0.1-0.3,0.3-0.6
		C31.6,19.6,31.5,19.6,30.8,19.6z M33.3,20.3c0.3,0,0.8,0,1.1,0c0-0.1,0.3-0.6,0.2-0.6s-0.9,0-1,0C33.6,19.7,33.4,20,33.3,20.3z"/>
	<path class="st0" d="M5.6,13.7c0.3-0.9,0.9-1.4,1.2-1.5c-0.5,1.6-0.5,3-0.7,4.4c0,0.2,0,0.5,0,0.6c0,0.5,0,0.5,0,0.7
		c0,0.1,0,0.3,0,0.5c0,0.1,0,0.2,0,0.4c0,0.3,0,0.3,0.1,0.6c0.1,0.3,0,0.2,0.1,0.4c0,0.2,0,0.4,0.1,0.6c0,0.3,0.2,0.5,0.2,0.7
		C6.8,21.6,6.7,21.4,7,22c0.5,0.9,1.3,1.9,2.3,2.1c2.2,0.2,3.1-1.3,3.6-2.2c0.1-0.1,0.6-1,0.6-1.1c0.1-0.2,0.2-0.5,0.3-0.8
		c0.3-0.8,0.6-1.6,0.7-1.9c0.1-0.1,0.2-0.5,0.3-0.7c0.2-0.6,0.5-1.6,0.8-2.4c0.8-2.4,1.1-4.2,1.8-6.8c0.2-0.8,0.4-1.6,0.7-2.4
		c0.1-0.2,0.1-0.5,0.2-0.7c0.2-1.1,0.3-1.5,0.5-2.5C19,2.1,19.4,1,20,0.7c-0.3,1.1-0.3,2.5-0.6,3.8C19.2,5.3,19.1,6,19,6.7
		c-0.5,1.9-0.9,4-1.4,5.7c-0.3,1-0.6,2.7-1.2,4.5c-0.1,0.3-0.3,0.9-0.4,1.2c-0.3,0.9-0.4,1.1-0.5,1.5c-0.4,1.2-0.6,1.6-1,2.3
		c-0.3,0.6-0.5,0.9-1,1.5c-0.2,0.2-0.5,0.5-0.8,0.9c-0.2,0.3-0.4,0.4-0.7,0.7c-2.3,1.3-4.9,0.4-6.4-2.2C4.4,20,4.5,16.6,5.6,13.7z
		 M5.1,13.4c0.3-0.3-0.3,1.1-0.4,1.4c-0.1,0.5-0.2,1-0.4,1.6c-0.4,1.5-0.4,3.3-0.1,5c0,0.1,0.1,0.4,0.1,0.4c0.2,0.9,0.6,1.8,1,2.5
		c0.6,1,1.5,1.5,2.6,1.9c0.9,0.1,1.8,0.3,2.8,0.1c0.2-0.1,0.5-0.1,0.7-0.2c0.3-0.1,0.5-0.2,0.7-0.3c0.1,0,0.3-0.2,0.4-0.3
		c0.3-0.2,0.3-0.2,0.6-0.4c0.4-0.3,1-0.9,1.3-1.4c0.7-0.9,1.1-1.7,1.7-3c0.5-1.1,0.8-2.2,1.2-3.2c0.3-0.9,0.4-1.5,0.5-2.3
		c0.1-0.2,0.1-0.3,0.1-0.6c0.1-0.3,0.2-0.7,0.3-1c0.1-0.3,0.2-1,0.3-1.3c0.3-1.4,0.6-2.9,0.9-4.4c0.1-0.3,0.2-0.6,0.3-0.9
		c0.1-0.5,0.3-1.1,0.4-1.8c0-0.1,0.1-0.5,0.1-0.6c0.1-0.4,0.1-0.4,0.2-0.9c0.1-0.2,0.1-0.5,0.2-0.7c0.4-1,0.7-2,1.2-3
		C22.2,0.7,22,1.7,22,2.5c0,0.3-0.1,0.7-0.1,0.9c-0.1,0.3-0.1,0.6-0.1,0.8c-0.1,0.4-0.1,0.6-0.1,1c-0.3,1-0.7,1.9-0.8,2.8
		c0,0.2-0.1,0.4-0.1,0.7c-0.1,0.6-0.2,0.8-0.3,1.3c0,0.2-0.1,0.3-0.1,0.4c0,0.3-0.3,1.5-0.4,1.8c-0.3,1.5-0.6,2.5-0.9,4
		c-0.1,0.6-0.2,0.8-0.4,1.4c-0.2,1-0.5,1.6-0.6,2c-0.2,0.7-0.7,1.4-0.9,2.1c-0.5,1.1-0.7,1.5-1.5,2.6c-0.2,0.2-0.4,0.5-0.6,0.7
		c-0.2,0.2-0.5,0.4-0.7,0.6s-0.5,0.3-0.7,0.5c-0.1,0.1-0.4,0.3-0.6,0.5c-0.2,0.2-0.9,0.5-1.1,0.6c-1.1,0.4-2.6,0.5-3.9,0.4
		c-0.8-0.1-2-0.4-2.9-0.9c-0.3-0.2-0.6-0.5-0.9-0.8C4,25.5,3.9,25.5,3.7,25S3.2,24,3,23.2c-0.1-0.4-0.1-0.8-0.1-1.1
		c0-0.4,0-0.7,0-1.1c0-0.3,0-0.6,0-0.9c0-0.7,0.1-2.1,0.4-2.7c0.2-0.7,0.5-1.6,0.9-2.2C4.4,14.5,4.7,13.9,5.1,13.4z M7.2,28.4
		c5,0.7,7.5-1.2,8.9-2.9c0.2-0.2,0.3-0.4,0.4-0.6c0.3-0.4,0.9-1.4,1.1-1.6c0.6-0.9,1.3-2.5,1.9-4.6c0.3-1.1,0.7-2.1,1-3.2
		c0.2-0.8,0.4-1.7,0.6-2.5c0.1-0.5,0.2-0.9,0.3-1.3c0.2-1.2,0.3-1.9,0.5-3.1c0.1-0.5,0.3-1.7,0.4-2.2c0.1-0.8,0.3-1.6,0.5-2.4
		c0.2-0.9,0.3-1.6,0.5-2.4c0.1-0.5,0.8-1.3,0.8-0.9c-0.1,1.7-0.2,4.1-0.5,6.4c-0.1,0.7-0.2,1.4-0.2,2.1c-0.1,1.8-0.7,3.6-1.1,5.3
		c-0.4,1.9-0.9,3.5-1.5,5.3c-0.2,0.6-0.3,1.1-0.5,1.6c-0.1,0.3-0.3,0.6-0.5,0.9c-0.1,0.1-0.1,0.2-0.1,0.3c-0.1,0.2-0.2,0.3-0.3,0.6
		c-0.3,0.6-0.4,0.9-1,1.7c-0.4,0.6-0.6,0.9-1.1,1.5c-0.1,0.1-0.3,0.3-0.4,0.4c-0.6,0.8-1.4,1.4-2.4,2c-0.7,0.4-1.3,0.8-2.3,1.1
		c-0.7,0.2-1.7,0.4-2.7,0.4c-0.3,0-1,0-1.3,0c-0.9,0-1.3,0-2.4-0.2c-0.4-0.1-1.5-0.4-1.9-0.5c-1.2-0.5-1.7-1-1.9-1.2
		c-0.5-0.4-0.7-0.8-1.1-1.6c-0.4-0.9-0.8-2.1-0.9-3.4c0-0.3,0-0.5,0-1c0-0.9,0-1.1,0.1-1.9c0-0.2,0.1-0.9,0.2-1.1s0.2-0.5,0.2-0.7
		c0.1-0.4,0.2-0.6,0.4-1c0.1-0.3,0.2-0.4,0.4-0.8c0.4-0.7,0.9-1.5,1.4-1.9c0.1,0,0.7-0.6,0.8-0.6C3,15.6,2.6,16.8,2.1,18
		c-0.2,0.5-0.2,0.6-0.3,0.9c-0.1,0.6-0.1,1-0.2,1.4c-0.1,0.5,0,0.8-0.1,1.2c-0.1,1.7,0.1,3.2,0.8,4.4C3.1,27.2,5.5,28.1,7.2,28.4z"
		/>
	<path class="st0" d="M117,6.4c0,0.4-0.1,0.6,0.1,0.6c0.5,0,1.6-0.1,1.8-0.1c0.5,0,1.1,0,1.7-0.1c0.3,0,0.5,0,0.8,0s0.7-0.1,1.1-0.1
		c0.7,0,1.6-0.1,2.5-0.1s2.7-0.1,3.5,0.1c1,0,0.3,0.2,0.2,0.4c-0.2,0.2-0.3,0.4-0.2,0.5c-2.1,0-8.2,0.2-11.6,0.5
		c-0.1,0-0.2-0.1-0.1,0.6c0.7,0,1.8,0,2.6-0.1c3.4-0.2,6.2-0.2,10-0.1c0.3,0-0.1,0.6-0.3,1.1c-0.1,0.1-0.3-0.2-0.2,0
		c-3.6,0.3-7.6,0.3-11.2,0.5c-0.3,0-0.8,0-1.1,0c0,0-0.1,0.9-0.1,1.1c0,0.9,0,1.5-0.1,2.3c3.7,0,6.7-0.4,10.4,0
		c0,0.1,0.1,0.2,0.1,0.3s1.1,0.6,0.3,0.6c-0.1,0-0.6-0.1-0.5,0c-1,0-0.8,0.1-1.9,0.1c-1.8,0-4.2,0.1-6.6,0.1c-0.3,0-1.3,0-1.9,0.1
		c-0.1,0,0,0.3-0.1,0.5c0.9,0.1,1.6,0,2.3,0c0.8,0,1.6-0.1,2.5-0.1c1.4,0,2.8-0.1,4.1,0c1.1,0,1.6,0.2,2.7,0.1c0,0.1,0.3,0,0.3,0.1
		s0.1,0.3,0.1,0.4s-0.3,0.3-0.3,0.4c-0.2,0.1-0.4,0-0.7,0.1c-0.1,0-0.3,0-0.4,0h-0.6c-0.2,0,0.1,0-0.1,0c-0.5,0-0.3,0-0.9,0
		c-0.7,0-1.3,0-2,0c-0.8,0-1.2,0.1-1.9,0.1c-1,0.1-2.2,0.1-3.3,0.1c-0.4,0-1.4,0-1.8,0c0,0,0,0.2,0,0.4c0.6,0,1.6,0,2.4,0
		c1.5,0,3-0.2,4.6-0.2c1.9-0.1,2.6,0.1,4.1,0.1c0.2,0,0.2,0,0.4,0c0,0.1,0.5,0.2,0.5,0.3c0.1,0.2,0.1,0.5-0.3,0.4
		c-0.1,0.1-0.2,0.1-0.4,0.2c-0.3,0.1-0.5,0-0.8,0.1c-0.6,0.1-0.2,0-1,0c-0.7,0-1.3,0.1-1.9,0.2c-0.7,0-1.1,0-1.6,0.1
		s-0.8,0.1-1.3,0.1s-0.9,0-1.5,0c-0.3,0-0.9,0-1.2,0c-0.6,0-1.2,0-2,0.1c-0.1,1.4-0.2,2.3-0.2,3.2c0,0.7-0.1,1.2-0.1,2.1
		c3.9,0,8.3,0.1,12.5,0.2c0.1,0,0.5,0.2,0.5,0.3c0,0.1,0,0,0,0.1c-0.1,0.1-0.3,0.3-0.4,0.5c-2.6,0.1-6.5-0.1-9,0.1
		c-1,0.1-2.4-0.1-3.4,0c-0.1,0-0.1,0-0.1,0.4c0.9,0,1.5,0.1,2.3,0c0.7,0,1.3,0,1.9,0c2.5,0,3.7,0,7.2,0.2c0.3,0.1,0.3,0.1,0.4,0.1
		c0.7,0.1,0,0.4,0.1,0.5s0.1,0.2-0.2,0.2c-2.2,0-3.1,0.2-5.6,0.1c-0.1,0-0.7,0-0.8,0h-0.6c-0.2,0-0.6,0-1.2,0c-1,0.1-1.9,0.1-3,0.1
		c-0.3,0-0.3,0.1-0.3,0.5c0.6,0,1.1,0,1.6,0.1c1.1,0,2.1,0.1,3.2,0.1c2.2,0.1,4.6,0.1,6.8,0.3c0.1,0.1,0.2,0.2,0.3,0.3
		c0,0.1,0.4,0.3,0.4,0.5c0,0.1-0.4,0.1-0.4,0.2c-2.7,0.1-3.5,0.1-6.1,0c-0.2,0-1.6,0-1.8,0c-1.7,0.1-2.8,0-4.9,0.2
		c-0.4-0.2-1-0.1-1.8-0.2c-0.6,0-1.2-0.1-1.5,0c-0.4,0.2-0.4,0.6-0.6,1c-0.8,0.5-1-1.1-1-2.3c0-1-0.1-1.7,0-2.6c0-0.6,0-1.2,0.1-1.6
		c0.1-1.4,0.1-2.4,0.2-3.7c0-0.9,0.2-1.9,0.2-2.9c0-1.5,0.2-2.9,0.3-4.3c0-0.3,0.1-0.8,0.1-1.1c0-0.7,0.1-1.2,0.2-1.9
		c0.2-1.3,0.2-2.8,0.5-4.1c0-0.1,0.1,0,0.1-0.1c0.2,0,0.6,0,0.7,0.1c0.1-0.1,0.1,0,0.2,0c0,0.2,0.3,0.2,0.4,0.2
		c0.2,0,0.6-0.1,0.7-0.2c0.2-0.1,0.1,0,0.3,0c0.1,0,0.3,0.3,0.4,0.2c0.9,0.1,1.5-0.1,2.6-0.1c0.3,0,1.2,0,1.6,0c2-0.1,3.7-0.2,6-0.3
		c1.7,0,3.3,0,4.7-0.1c0,0.3,1.1,0,0,0.9c0.1,0-0.5,0.1-0.4,0.1c-0.4,0.1-1.1,0.2-1.1,0.2c-1.6,0.3-1.8,0.1-3.3,0.3
		c-1.2,0.2-2.4,0.2-3.7,0.3C119.7,6.3,118.2,6.3,117,6.4z M112.8,7c0,0,0.8,0.1,0.8-0.1c0.1-0.2,0-0.4,0-0.4c-0.3-0.1-0.8-0.1-0.8,0
		C112.8,6.7,112.8,7,112.8,7z M114.9,6.5c0,0.3-0.1,0.4,0,0.5c0.2,0.1,0.6,0.1,0.9-0.1c0.1-0.3,0-0.3,0-0.4
		C115.5,6.4,114.9,6.5,114.9,6.5z M113.3,8.9c0.2-0.2,0.1-0.4,0.1-0.8C113.2,8,113.1,8,112.8,8c-0.2,0.4-0.1,0.4-0.2,0.7
		C112.6,8.9,113.1,8.9,113.3,8.9z M114.8,8.2c0,0.1,0,0,0,0.6c0.2,0,0.6,0.1,0.7,0s0.1-0.4,0.1-0.6C115.4,8.2,115.2,8.1,114.8,8.2z
		 M112.6,10.3c-0.1,1-0.1,1-0.2,1.7c0,0.3-0.1,1.2,0,1.6c0.3,0,0.6,0.1,0.6-0.1c0-0.3,0.1-1.1,0.2-1.5c0-0.5,0.1-1,0.2-1.8
		C112.9,10.2,112.7,10.1,112.6,10.3z M114.4,12.3c0,0.5,0,1,0,1.4c0.2-0.1,0.6,0.1,0.7-0.1c0.1-0.5,0-1.3,0.1-1.7
		c0.1-0.6,0.1-1.2,0.1-1.7c-0.3-0.1-0.7,0-0.7,0C114.5,10.6,114.5,11.6,114.4,12.3z M112.3,15.5c0,0,0.4,0,0.6,0
		c0.1-0.3,0.1-0.5,0.1-0.7c0-0.1-0.4-0.1-0.6-0.1C112.3,15,112.3,15.2,112.3,15.5z M114.3,15.4c0.3,0.1,0.4,0.1,0.7,0
		c0-0.2,0.1-0.6,0-0.6c-0.2-0.1-0.6-0.1-0.6,0C114.3,15.1,114.2,15.2,114.3,15.4z M112.1,17c0.1,0,0.6,0,0.7,0
		c0-0.3,0.1-0.2,0.1-0.6c-0.1,0-0.7-0.1-0.7,0.1C112.1,16.8,112.2,16.6,112.1,17z M114.1,16.9c0.1,0,0.8,0.1,0.9,0s0-0.3,0-0.4
		c-0.3-0.1-0.8,0-0.8,0C114.1,16.6,114.1,16.8,114.1,16.9z M112.1,18.2c-0.1,0-0.1,0.9-0.1,1c-0.1,1,0,0.8-0.1,1.7
		c0,0.4-0.1,0.7-0.1,1.1c0,0.5,0,1.1,0,1.5c0.3,0,0.4,0.1,0.6,0c0-1.1,0.2-2.2,0.2-3.6c0-0.5,0.1-1,0.1-1.6
		C112.7,18.2,112.2,18.2,112.1,18.2z M114.1,18.2c-0.2,1.7-0.2,3.4-0.4,5.3c0.2,0,0.6,0,0.8,0c0-1.5,0.1-1.4,0.1-2.7
		c0-0.4,0.1-1,0.1-1.4c0-0.1,0-0.2,0.1-1.1C114.8,18.2,114.2,18.2,114.1,18.2z M111.8,24.6c-0.1,0.2,0,0.3,0,0.6
		c0.2-0.1,0.5-0.1,0.7-0.1c0-0.3,0-0.2-0.1-0.6C112.2,24.6,112.3,24.6,111.8,24.6z M113.8,25.2c0.2,0,0.8,0.1,0.8-0.1
		c0-0.1,0-0.4,0-0.5c-0.1,0-0.7,0-0.8,0C113.7,24.9,113.8,25,113.8,25.2z M111.8,26.9c0.2,0,0.6,0.1,0.6-0.1c0,0,0.1-0.2,0-0.4
		c0-0.1-0.6,0-0.7,0C111.8,26.7,111.8,26.6,111.8,26.9z M113.7,26.8c0.3,0.1,0.6,0.1,1,0c0-0.1,0-0.5,0-0.5
		c-0.1-0.1-0.9-0.1-0.9,0.1C113.6,26.6,113.6,26.6,113.7,26.8z"/>
	<path class="st0" d="M145.7,15.1c1.1-0.6,1.9-1.1,2.9-1.7c0.3-0.2,0.9-0.6,1.2-0.9c0.5-0.4,1-0.9,1.4-1.3c0.3-0.3,0.5-0.6,0.7-1
		c0.4-0.7,0.8-1.1,0.5-2.1c-0.1-0.4-0.6-0.9-1.1-1.1c-2.2-1.2-5.3-1.5-8-1.5c-0.3,0-1.1,0.1-1.7,0.1c0,0,0,0.2,0,0.5
		c0.9-0.1,1.6-0.1,2.3-0.1c0.8,0,1.6,0.1,2.4,0.2c0.8,0.1,1,0.1,1.7,0.3c0.7,0.2,1.5,0.6,2,0.9s0.8,0.5,1.1,1.1
		c0.3,1.3-0.2,1.9-0.7,2.5c-0.8,1-1.8,1.6-3,2.3c-0.7,0.4-0.9,0.6-1.5,0.9c-0.2,0.1-0.6,0.4-1,0.6C145.1,14.9,145.4,15,145.7,15.1z
		 M139.7,6.3c0.4,0,0.6-0.1,0.9-0.1c0,0,0.1-0.4,0.1-0.6c-0.3,0-0.6,0-1,0.1C139.6,5.8,139.7,6.1,139.7,6.3z M137.8,6.6
		c0.2,0,0.4-0.1,0.8-0.1c0.1-0.2,0.1-0.4,0.1-0.6c-0.4-0.1-0.8,0-0.8,0.1C137.8,6.2,137.8,6.2,137.8,6.6z M138,13.7
		c0.1-1.4,0.1-2.9,0.3-4.3c0-0.3,0-0.5,0-0.7c0-0.1-0.8,0.1-0.8,0s0.1-0.7,0.1-0.8c0-0.1,0.8-0.1,0.8-0.1c0-0.1,0-0.3,0.1-0.4
		c0-0.1-0.7,0-0.8,0.1c0,0.1-0.1,0.9-0.1,1c-0.1,0.6-0.2,1.6-0.2,2.2c-0.2,2-0.2,3.2-0.3,5.3c0.4,0.1,0.6-0.1,0.8-0.1
		c0,0,0-0.7,0.1-1.2c0-0.2-0.5,0-0.8-0.1c-0.1-0.1-0.1-0.3-0.1-0.4C137.1,14,138,13.8,138,13.7z M148.4,9.3c0.1,0.6-0.4,1.4-2.1,2.5
		c-1.1,0.8-3.5,1.8-5.1,2.5l-0.1,0.9c1.1-0.3,2.9-1.3,3.9-1.9c0.8-0.4,2.7-1.6,3.9-2.7c0.7-0.6,1-1.3,0.7-1.8
		c-0.2-0.4-0.6-0.8-1.2-1.1c-1.4-0.6-3.6-0.9-4.7-0.9c-1.7,0-2.3,0.2-2.4,0.2c0,0,0,0.3,0,0.5c0,0,0.9-0.2,1.9-0.2
		c0.9,0,1.7,0,2.1,0C147.3,7.6,148.2,8.3,148.4,9.3z M139.5,7.3c0,0.1,0,0.3,0,0.5c0.2-0.1,0.5-0.1,0.8-0.1c0-0.1,0.1-0.4,0.1-0.5
		C140,7.2,139.9,7.2,139.5,7.3z M145.5,10.8c0.4-0.3,1.3-1.1,1.3-1.7c-0.1-0.6-1.1-0.9-2-0.9c-1.2-0.1-2.4,0.1-3.5,0.3
		c0,0.5,0,1.1-0.1,1.6c0,0.6,0,0.6-0.1,1.3c0,0.2,0,0.6,0,0.8s0,0.6,0,0.9C142.8,12.4,144.2,11.8,145.5,10.8z M139.5,8.6
		c-0.2,1.2-0.1,2-0.2,3.2c0,0.5,0,1.1,0,1.6c0.4,0,0.8-0.1,0.8-0.1c0.1-0.8,0-1.9,0.1-2.8c0-0.6,0-1.4,0.1-2.1
		C140,8.6,139.8,8.5,139.5,8.6z M137,18.8c0.3-0.1,0.6-0.1,0.8-0.2c0-0.3,0-0.9,0-1.2c-0.3,0-0.5,0.1-0.8,0.1
		C137,18.5,137.1,17.5,137,18.8z M141.1,17.5c0.4-0.1,0.9-0.3,1.3-0.5c-0.1-0.1-0.7-0.3-0.9-0.4c-0.1-0.1-0.2,0-0.5,0.1
		C141.1,16.9,141.1,17.2,141.1,17.5z M142.9,15.8c0.4,0.2,0.6,0.3,0.9,0.4c0.2-0.1,0.5-0.3,0.6-0.4c0,0-0.4-0.1-0.9-0.3
		C143,15.7,142.9,15.8,142.9,15.8z M139,18.2c0.1,0,0.7-0.1,0.7-0.2c0.1-0.1,0.1-1,0.1-1.1c-0.2,0.1-0.6,0.2-0.8,0.2
		C139,17.3,139,17.9,139,18.2z M139.2,15.6c0.1,0,0.7-0.1,0.8-0.2c0.1-0.1,0-0.8,0.1-0.9c-0.2,0.1-0.6,0.1-0.8,0.1
		C139.2,14.9,139.2,15.4,139.2,15.6z M162.1,28c-0.1,0-2.3,0.1-3.5,0.2c-0.8,0.1-1.3,0-1.8,0c-0.2,0-0.7-0.2-1.2-0.4
		c-0.7-0.3-0.6-0.2-1.4-0.6c0,0-0.6-0.4-0.8-0.5c-0.1-0.1-0.9-0.7-0.9-0.7c-0.9-0.8-1.2-1.1-2.1-2.2c-0.8-0.9-1.3-1.7-1.9-2.5
		c-0.8-0.9-1.5-1.7-2.6-2.5c-1-0.7-1.9-1-2.3-1.2c-0.1,0-0.5,0.3-0.9,0.5c3.3,1.4,4.4,2.7,5.3,3.7c0.4,0.5,0.7,0.8,1.1,1.3
		c1.3,1.5,1.3,1.9,2.9,3.3c0.4,0.3,1.1,0.8,1.5,1.1c0.1,0.1,0.5,0.3,0.6,0.3c0.3,0.1,0.8,0.4,1.1,0.5c0.7,0.3,1.2,0.4,2,0.4
		c1.2,0,3.1-0.4,4.1-0.4c0.8,0,0.8,0.2,0.9,0.2c0.5,0-0.8,0.3-1.5,0.5s-0.6,0.2-1.3,0.4c-0.7,0.2-1,0.2-1.8,0.3
		c-0.6,0-1.1,0-1.6-0.1c-0.9-0.1-1.2-0.1-2.3-0.6c-0.7-0.3-0.6-0.2-1.6-0.8c-0.5-0.4-1.3-1-1.8-1.4c-0.7-0.6-2.5-2.8-2.9-3.1
		c-0.3-0.3-0.7-0.8-1-1.2c-0.4-0.4-1.1-1-1.5-1.4c-0.5-0.4-1.1-0.8-1.5-1c-0.8-0.4-1.6-1.1-2.7-0.9c0,3-0.1,6.5-0.6,9.4
		c-0.7,0.4-0.6,0.1-0.6-0.2c-0.1-3.7,0.1-6.2-0.1-8.9c-0.2,0.1-0.7,0.1-0.7,0.2c0,0.5,0.1,1.2,0.1,1.7c0,0.8,0,1.7,0,2.5
		c-0.1,1,0,4.2-0.3,4.8c-0.2,0.5-0.5,0.1-0.9-0.2c-0.2-2.4,0.2-5.7,0-8.6c-0.4,0.1-0.6,0.1-0.9,0.2c-0.1,2.6-0.3,4.2-0.3,6.2
		c0,0.1-0.1,0.9-0.1,0.8c0,0.1-0.1,0.7-0.1,0.8c0,0.4,0,0.3-0.1,0.6c0,0.3,0,0.2-0.3,0.4c-0.4,0.1-0.5,0.2-0.6-0.1
		c-0.2-0.5-0.3-0.4-0.3-0.9c0-0.6,0-1.3,0.1-2.2c0-0.8,0-1.6,0-2.4c0.2-4.7,0.2-9.5,0.7-13.2c0.1-1.1,0.3-2.2,0.5-3.2
		c0.1-0.6,0.2-1.1,0.3-1.8c2.6-0.5,5.9-0.7,9.2-0.5c1.5,0.1,2.6,0.4,3.9,0.7c0.6,0.2,1.5,0.5,2.1,0.8c1.1,0.5,1.5,0.9,1.8,1.7
		s0.1,1.5-0.1,2.3c-0.4,1.5-1.4,2.7-2.7,3.6c-1,0.7-2.6,1.5-3.6,2.1c0.5,0.2,1.5,0.7,1.9,1.1c0.2,0.2,0.8,0.7,1,0.9
		c0.5,0.5,0.8,1.1,1.2,1.5c0.3,0.4,0.7,1.2,1,1.6c0.6,0.9,1.5,1.9,2.4,2.8c1,0.9,2,1.3,3.5,2.2c0.5,0.3,1.9,0.8,2.2,1
		c0.4,0.2,0.4,0.3,0.8,0.5c1.2,0.6,0.1,0.1-0.4,0c-0.2-0.1-1.2-0.2-1.4-0.3c-0.2-0.1-0.9-0.3-1.2-0.4c-0.5-0.2-1-0.3-1.2-0.4
		c-0.5-0.3-1.1-0.4-2.1-1.1c-0.4-0.3-0.8-0.6-1.3-1.1c-0.4-0.4-0.7-0.7-1.2-1.2c-0.1-0.1-0.8-0.8-1.2-1.5c-0.2-0.3-0.6-0.8-0.9-1.2
		c-0.4-0.5-0.7-1-1.3-1.6c-1-0.9-2-1.9-3.2-2.3c-0.2,0.1-0.4,0.3-0.6,0.4c1.4,0.8,2.1,1.6,2.9,2.4c1.6,1.6,2.6,3.1,4.2,5
		c0.9,1,1.6,1.5,2.6,2.1c0.7,0.4,0.9,0.5,1.9,0.8c0.9,0.3,2,0.1,3.4,0.3c0.3,0.1,0.7,0.2,1,0.3C161.9,27.9,162,27.9,162.1,28z"/>
	<path class="st0" d="M102.4,9.1c-0.4-0.1-1.3-0.6-1.9-0.8c-0.1,0-0.6-0.2-1.3-0.4c-0.9-0.2-1.5-0.4-1.6-0.4C95,7.2,92.2,7.9,90.5,9
		c-1.5,0.9-3.1,2.5-4,3.6c-0.7,0.9-0.6,0.7-1.1,1.8c-0.2,0.4-0.4,1-0.6,1.9c-0.3,1.4-0.6,3.3,0,5.9c0.3,1,0.6,1.3,1.2,2
		c0.7,0.7,1.6,1.2,2.5,1.6c0.7,0.3,1.2,0.4,2.1,0.5c1.2,0.1,2.2-0.1,3.3-0.2c1.6-0.2,2.6-0.3,4.1-0.9c0-0.2,0-0.4,0-0.6
		c-2.6,0.9-4.3,1.1-6.4,1.1c-1.9,0.1-3.4-0.6-4.6-1.5c-0.3-0.2-0.5-0.4-0.7-0.7c-0.1-0.1-0.1-0.2-0.2-0.3C86,23.1,86,23,85.9,22.9
		c-0.9-1.4-0.7-4.1-0.4-5.7c0.4-2.1,1.4-3.8,2.6-5.2c0.8-0.9,1.6-1.5,2.5-2.1c1-0.6,1.8-1,2.5-1.3C93.7,8.3,94.5,8,95,7.9
		c1-0.1,2-0.1,3.3,0.1c1.1,0.2,1.6,0.5,2.8,0.8c0.6,0.3,1.3,0.5,1.6,0.6c-1.3,0.4-3-0.1-4.2-0.4c-0.9,0-1.6,0-2.8,0
		c-1.3,0-2.4,0.5-3.6,1.3c-0.9,0.5-1.8,1.3-2.3,1.8c-0.9,0.9-1.8,2.3-2.3,3.8c-0.7,1.9-1.1,5.1,0.3,6.9c0.3,0.3,0.7,0.6,1.1,0.9
		c0.8,0.4,1.6,0.8,2.8,0.8c1.3,0,2.1-0.1,3.2-0.4c1.3-0.3,2.4-0.6,3.4-0.9c0.1-1.2,0.4-3.1,0.9-5.7c0.3-0.2,0.8-0.1,1.1-0.2
		c-0.1,1.7-0.6,4.1-0.7,5.6c0.2-0.1,0.6-0.2,0.6-0.3c0.1-0.3,0.1-1.5,0.2-1.8c0.1-0.8,0.1-1.2,0.3-2c0-0.1,0.1-0.6,0.1-0.7
		c0-0.2,0.1-0.5,0.2-0.9c0.2-0.2,0.3-0.4,0.7-0.4c0.3,0,0.4,0.6,0.3,0.7c-0.1,1.8-0.4,3.1-0.4,4.7c0.1-0.2,0.7,0.2,0.7,0
		c0.3-2,0.3-3.2,0.6-5c0.2-0.1,0.2-0.2,0.4-0.3c0.5,0,0.6,0.3,0.8,0.5c-0.1,1.1-0.4,2.3-0.4,3.6c0,0.4-0.1,1-0.1,1.3
		c0,0.5,0,0.7-0.1,1c-0.1,0.9,0,3-0.1,3.9c-0.2,1.4,0,2.7-1.5,2.2c-0.2-0.2,0.2-2.1,0.1-2.4c-0.1,0.1-0.6,0.2-0.6,0.3
		c-0.1,0.1-0.1,2.1-0.2,2.2c-0.1,0.2-0.2,0.7-0.4,0.6c-0.7-0.3-0.8-1.3-0.7-2.4c-0.2,0.1-0.6,0.3-0.6,0.4c-0.1,0.2-0.2,0.5-0.4,0.6
		c-0.2,0.2-0.5,0.2-0.6,0.4c-0.3,0-0.1-0.7-0.2-0.8c-2,0.7-3.3,1-5.4,1.2c-1.6,0.2-2.3,0.1-4.3-0.1c-1.3-0.1-2.3-0.5-2.9-0.9
		c-0.7-0.4-1.2-0.7-1.7-1c-0.4-0.2-0.6-0.4-0.9-0.7c-1.3-1.2-2.4-3.8-2.6-6c-0.1-0.7,0-1.6,0.1-2.4c0-0.2,0.1-0.5,0.1-0.7
		c0.2-1.2,0.3-1.4,0.7-2.8c0.2-0.5,0.5-1,0.5-1c0.1-0.2,0.3-0.7,0.5-1c0.4-0.6,0.7-1.3,1.2-1.9c0.5-0.8,1.2-1.5,1.8-2.2
		c0.5-0.6,0.8-0.8,1.2-1.1c0.1-0.1,0.7-0.5,0.4-0.3c0-0.4,0.3-0.7,0.5-0.8c0.7-0.5,1.2-0.7,2.2-1.1c0.3-0.1,0.7-0.3,1-0.4
		c0.7-0.3,1.7-0.4,1.9-0.4c0.3-0.1,1-0.1,1.6-0.1s1.4,0,1.6,0C96.7,4.7,98.2,5,99,5.2c1.1,0.3,3.2,1.5,3.7,2.3
		c-0.1,0.1,0.8,1,0.4,0.7c-1-0.7-3.1-1.7-3.9-1.9c-1-0.2-2.1-0.5-3.1-0.6c-0.8-0.1-1.3,0-2.4,0.1c-0.3,0-0.9,0.1-1.4,0.3
		C92,6.2,91,6.4,90.7,6.5c-1.1,0.4-2.7,1.2-3.6,2c-1.5,1.3-2.7,3.1-4,5.4c-0.3,0.5-0.6,1.4-0.8,2.1c-0.2,0.9-0.3,1.6-0.4,2.4
		c-0.3,2.7,0.6,4.9,1.7,6.5c0.6,0.8,1.9,2.1,3.3,2.5c3,1,4.5,0.7,5.8,0.6c1.6-0.1,1.6-0.1,3.1-0.4c0.5-0.1,1.6-0.5,2.2-0.7
		c0,0,0-0.4,0-0.5s-1.2,0.5-4,0.9c-1.3,0.1-2.8,0.2-4.1,0.1c-2.9-0.3-4.9-2.1-5-2.2c-0.5-0.6-1-1.2-1.3-1.9
		c-0.7-1.5-0.8-2.6-0.8-3.2c-0.1-1.6,0-1.6,0.3-3.1c0.1-0.2,0.1-0.5,0.2-0.7c0.1-0.5,0.8-2.6,1.5-3.6c0.6-0.8,1.1-1.5,1.8-2.2
		c0.9-1,1.4-1.5,2.2-2c0.6-0.4,1.2-0.9,2-1.2c0.9-0.3,1.5-0.6,1.8-0.6c0.6-0.1,0.9-0.1,1.8-0.3c0.6,0,1.1-0.1,1.5-0.1
		c1.4,0,2.2,0.2,2.7,0.3c0.9,0.3,1.8,0.5,2.6,1C101.8,7.9,104.3,9.6,102.4,9.1z M100.2,24.4c0-0.1,0-0.3,0-0.6
		c0,0.1-0.7,0.3-0.7,0.4c0,0.2,0,0.5,0,0.5C99.5,24.8,99.9,24.5,100.2,24.4z M100.1,26.1c0-0.1,0-0.4,0-0.6c0,0-0.7,0.3-0.7,0.4
		c0,0.2,0,0.5,0,0.5C99.6,26.3,99.7,26.2,100.1,26.1z M102.1,23.6c0-0.1,0.1-0.4,0.1-0.6c0,0.1-0.7,0.3-0.8,0.4c0,0.1-0.1,0.5,0,0.6
		C101.3,23.9,102,23.7,102.1,23.6z M102,25.3c0-0.2,0-0.5,0-0.6c0,0-0.8,0.3-0.8,0.4s0,0.5,0,0.6C101.3,25.7,101.8,25.4,102,25.3z"
		/>
	<path class="st0" d="M62.2,4.6c0.2,0.1,0.2,0.3,0.3,0.5C63,5.2,64,5.4,64.1,4.8c0.2-0.3,0.2,0.3,1.2,0.3c4,0.1,9.1,0.2,12.9,0.1
		c0.2,0.2,0.2,0.3-0.1,0.4c0,0.3,0,0.3-0.3,0.4c-0.3,0.3-0.7,0.3-1.2,0.3c-1.9,0.3-4,0.4-5.9,0.5c-1,0.1-1.9,0-2.8,0.1
		C66.8,7,65.8,6.8,64.7,7c0,0.1-0.1,0.4-0.1,0.6c0.7,0,1.2,0,1.9,0c3.1-0.1,7.1,0,10.4,0.1c0.5,0,0.9-0.1,1.3,0
		c-0.1,0.3,0,0-0.1,0.4c0.1,0.1,0.1,0.2-0.1,0.3c-0.1,0.1-0.3,0.1-0.6,0.1c-1.9,0.3-3.7,0.3-5.6,0.3c-1.7,0-3.3,0.1-5.4,0.1
		c-0.3,0-0.7,0-1,0c-0.2,0-0.3-0.1-0.9,0c0,0.6-0.2,0.6,0.2,0.6c4.1-0.1,9.1-0.3,12.6-0.3c0.2,0,0.3,0,0.5,0.1c0,0,0.2,0.2-0.1,0.5
		c0,0,0,0.2-0.2,0.2c-4.2,0.6-9.1,0.5-13.1,0.7c-0.1,0.5-0.1,1.6-0.2,2.3c4-0.1,7.2-0.3,11-0.1c0,0.3,0.3,0.3,0.2,0.5
		c0,0.2,0,0.2-0.2,0.4c-0.3,0.3-0.4,0-0.6,0.1c-1.1,0.3-2.8,0.2-3.8,0.3c-1.6,0.2-3.4,0.2-5.1,0.3c-0.5,0-0.9,0.1-1.5,0.1
		c0.1,0.4-0.1,0.6,0.1,0.6c2.9-0.2,7.4-0.4,10.2-0.5c0.6,0,0.1,0.1,0.1,0.5c-0.1,0.5-0.7,0.3-0.7,0.5c-1.1,0.3-2.1,0.2-3.3,0.3
		c-1.2,0.2-2.6,0.1-3.8,0.2c-1,0.1-1.7,0.2-2.6,0.2c0,0.2-0.2,0.6,0.2,0.5c3.2-0.2,7.5-0.2,10.4-0.2c0,1-0.5,1.5-1.7,1.3
		c-0.2,0-0.6,0-1.1,0s-1.3,0.1-1.6,0.1c-2.4,0.1-3.8,0-6.3,0.3c-0.1,1.4,0,2-0.2,3.7c0,0.1,0,1.2-0.1,1.2c0.5,0.1,1,0.1,1.4,0.1
		c0.3,0,0.6,0,1,0c1.5,0,3.6-0.1,5.1,0c1.3,0,2.9,0,4,0c-0.2,0.3,0.2,0.5-0.6,1c-2.5,0.3-7.7,0.3-10.6,0.3c-0.5,0-0.4,0-0.5,0.5
		c0.4,0.2,1,0,1.8,0c2,0,3.7,0,5.2-0.1c0.3,0,2-0.1,2.1,0c1.1-0.1,0.8,0,1.7-0.1c0.4,0,0.7-0.3,1-0.1c0,0.4-0.1,0.2-0.2,0.4
		c-0.1,0.5-1.2,0.7-2,0.8c-1.8,0.3-4.1,0.3-5.9,0.5c-1.4,0.1-2.5-0.1-3.8-0.1c0.1,0.3,0,0.6,0.1,0.6c3.8,0.2,7.5,0.1,11.5,0
		c0.1,0,0.1-0.1,0.2-0.1s0.1,0.2,0.2,0.4c-0.4,0.5-0.5,0.5-0.9,0.8c-2.5,0.3-4.7,0.3-7.4,0.1c-0.2,0-1.8,0.1-2.1,0.1
		c-0.3,0-0.8,0-1,0c-0.5,0-0.4-0.2-0.8,0c-0.4,0.3,0.1,0.4-0.6,0.9c-0.6,0.2-0.5-0.6-0.5-1c-0.6-0.1-1.6-0.1-1.9,0.2
		c-0.2,0-0.4-0.4-0.6-0.5c-0.8-0.1-1.8-0.1-2.4,0.1c-0.2-0.4,0-0.9,0-1.3c0.1-0.6,0.1-1.8,0.1-2.4c0.1-4.1,1.2-10.5,2-18.9
		c0.6-0.7,1-0.5,1.2-0.7c0.3,0.1,0.4,0.4,0.7,0.5C61.8,5.4,61.7,4.7,62.2,4.6z M60.9,7.4c0.1,0,0.5,0.1,0.5,0c0-0.3,0.1-0.7,0-0.9
		c-0.2,0-0.4-0.1-0.4,0.1C60.9,6.9,60.8,7.3,60.9,7.4z M62.6,7.4c0.1,0,0.4,0.1,0.7,0.1c0-0.3,0-0.5,0-0.7c-0.3-0.1-0.8-0.2-0.8,0
		S62.5,7.1,62.6,7.4z M60.8,9.4c0.2,0,0.5,0.1,0.6,0c0.1-0.3,0-0.4,0-0.8c-0.2,0-0.5-0.1-0.5,0C60.8,8.9,60.8,9.3,60.8,9.4z
		 M62.5,8.7c-0.1,0.1-0.1,0.4-0.1,0.6c0.3-0.1,0.4,0.1,0.6,0c0.1-0.1,0.1-0.4,0.1-0.6C62.9,8.7,62.8,8.6,62.5,8.7z M60.7,10.7
		c-0.2,0.6-0.3,1.5-0.3,2.3c0.2,0.1,0.3,0,0.5,0c0-0.6,0.2-1.7,0.2-2.3C61,10.7,60.8,10.7,60.7,10.7z M62.3,10.7
		c0,0.8-0.1,1.5-0.2,2.1c0.1,0.1,0.6,0.1,0.8,0.1c0.1-0.6,0.1-1.7,0.1-2.2C62.7,10.7,62.6,10.8,62.3,10.7z M60.2,14.3
		c0,0.2-0.1,0.5-0.1,0.6c0.2,0.1,0.5,0.1,0.7,0.1c0-0.2,0.1-0.3,0.1-0.7C60.5,14.3,60.4,14.2,60.2,14.3z M62,14.9
		c0.2,0.1,0.6,0.1,0.8,0c0-0.2,0.2-0.5,0.1-0.5c-0.1-0.1-0.9-0.2-0.8,0C62,14.6,62,14.7,62,14.9z M59.9,16.7c0.2,0.1,0.4,0.1,0.8,0
		c0-0.2,0-0.3,0-0.5c-0.1-0.1-0.8-0.2-0.8,0C59.9,16.5,59.8,16.4,59.9,16.7z M61.8,16.6c0,0.3,0.6,0.1,1,0.1c0-0.1,0.1-0.3,0.1-0.5
		c-0.2-0.1-0.8-0.1-1,0C61.8,16.2,61.8,16.4,61.8,16.6z M59.7,18.1c-0.3,1.1-0.2,3-0.4,4.1c0,0.3-0.1,0.9,0,0.9
		c0.4,0.1,0.7,0.1,1-0.1c-0.1-1.7,0.3-3.1,0.2-4.8C60.4,18,60,18.1,59.7,18.1z M61.9,18.3C61.9,18.3,61.8,18.3,61.9,18.3
		c0,0.4-0.1,0.8-0.2,1.2c-0.1,1.1-0.1,1.5-0.1,2.2c0,0.4-0.1,1.3,0,1.5c0.4,0,0.7,0.1,1-0.1c0.1-1.5,0.2-3.3,0.3-4.8
		C62.7,18.2,62,18.2,61.9,18.3z M58.9,24.9c0.2,0.3,1.2,0.2,1.4-0.1c0-0.2,0-0.4,0-0.6c-0.3-0.1-0.8-0.1-1.2-0.1
		C59,24.2,59,24.8,58.9,24.9z M61.5,25c0.3,0.2,0.7,0.2,1,0.1c0.1,0,0-0.5,0-0.6s-0.7-0.2-1-0.1C61.3,24.4,61.5,24.9,61.5,25z
		 M59,26c-0.2,0.2-0.1,0.3-0.2,0.7c0.5,0,0.9,0.1,1.2,0c0.1,0,0-0.6,0.2-0.7C59.6,25.9,59.7,26.1,59,26z M61.3,26.6
		c0.4,0,0.9,0.2,1.1,0c0.1,0,0-0.4,0-0.5c-0.4-0.1-0.7,0-1,0C61.3,26.1,61.3,26.4,61.3,26.6z"/>
</g>
</svg>
